<svg width="140" height="140" viewBox="0 0 140 140" fill="none" xmlns="http://www.w3.org/2000/svg">
<path d="M37.3333 53.6667H38.5C42.9916 53.6667 46.6666 57.3418 46.6666 61.8334V102.667C46.6666 107.158 42.9916 110.833 38.5 110.833H37.3333C32.8416 110.833 29.1666 107.158 29.1666 102.667V61.8334C29.1666 57.3418 32.8416 53.6667 37.3333 53.6667V53.6667ZM70 29.1667C74.4916 29.1667 78.1666 32.8417 78.1666 37.3334V102.667C78.1666 107.158 74.4916 110.833 70 110.833C65.5083 110.833 61.8333 107.158 61.8333 102.667V37.3334C61.8333 32.8417 65.5083 29.1667 70 29.1667ZM102.667 75.8334C107.158 75.8334 110.833 79.5084 110.833 84.0001V102.667C110.833 107.158 107.158 110.833 102.667 110.833C98.175 110.833 94.5 107.158 94.5 102.667V84.0001C94.5 79.5084 98.175 75.8334 102.667 75.8334V75.8334Z" fill="#274C77"/>
</svg>
