<svg width="140" height="140" viewBox="0 0 140 140" fill="none" xmlns="http://www.w3.org/2000/svg">
<path d="M122.5 11.6666H17.4999C11.0833 11.6666 5.83325 16.9166 5.83325 23.3333V93.3333C5.83325 99.75 11.0833 105 17.4999 105H58.3332V116.667H52.4999C49.2916 116.667 46.6666 119.292 46.6666 122.5C46.6666 125.708 49.2916 128.333 52.4999 128.333H87.4999C90.7082 128.333 93.3332 125.708 93.3332 122.5C93.3332 119.292 90.7082 116.667 87.4999 116.667H81.6666V105H122.5C128.917 105 134.167 99.75 134.167 93.3333V23.3333C134.167 16.9166 128.917 11.6666 122.5 11.6666ZM116.667 93.3333H23.3333C20.1249 93.3333 17.4999 90.7083 17.4999 87.5V29.1666C17.4999 25.9583 20.1249 23.3333 23.3333 23.3333H116.667C119.875 23.3333 122.5 25.9583 122.5 29.1666V87.5C122.5 90.7083 119.875 93.3333 116.667 93.3333Z" fill="#274C77"/>
</svg>
