<svg width="140" height="140" viewBox="0 0 140 140" fill="none" xmlns="http://www.w3.org/2000/svg">
<path d="M40.8334 29.1667H99.1667V40.8334H110.833V17.5C110.833 11.0834 105.583 5.89171 99.1667 5.89171L40.8334 5.83337C34.4167 5.83337 29.1667 11.0834 29.1667 17.5V40.8334H40.8334V29.1667ZM89.8917 96.775L116.667 70L89.8917 43.225L81.6667 51.5084L100.158 70L81.6667 88.4917L89.8917 96.775ZM58.3334 88.4917L39.8417 70L58.3334 51.5084L50.1084 43.225L23.3334 70L50.1084 96.775L58.3334 88.4917ZM99.1667 110.833H40.8334V99.1667H29.1667V122.5C29.1667 128.917 34.4167 134.167 40.8334 134.167H99.1667C105.583 134.167 110.833 128.917 110.833 122.5V99.1667H99.1667V110.833Z" fill="#274C77"/>
</svg>
