<svg width="140" height="140" viewBox="0 0 140 140" fill="none" xmlns="http://www.w3.org/2000/svg">
<path d="M122.5 35H17.4999C11.0833 35 5.83325 40.25 5.83325 46.6667V93.3333C5.83325 99.75 11.0833 105 17.4999 105H122.5C128.917 105 134.167 99.75 134.167 93.3333V46.6667C134.167 40.25 128.917 35 122.5 35ZM64.1666 75.8333H46.6666V93.3333H34.9999V75.8333H17.4999V64.1667H34.9999V46.6667H46.6666V64.1667H64.1666V75.8333ZM90.4166 87.5C85.5749 87.5 81.6666 83.5917 81.6666 78.75C81.6666 73.9083 85.5749 70 90.4166 70C95.2582 70 99.1666 73.9083 99.1666 78.75C99.1666 83.5917 95.2582 87.5 90.4166 87.5ZM113.75 70C108.908 70 105 66.0917 105 61.25C105 56.4083 108.908 52.5 113.75 52.5C118.592 52.5 122.5 56.4083 122.5 61.25C122.5 66.0917 118.592 70 113.75 70Z" fill="#274C77"/>
</svg>
